<svg width="17" height="17" viewBox="0 0 17 17" fill="none" xmlns="http://www.w3.org/2000/svg">
<path d="M8.50473 11.675C7.44564 11.6757 6.45592 11.1482 5.86606 10.2686C5.27624 9.38905 5.16388 8.27315 5.56649 7.29369C5.96919 6.31413 6.83388 5.59991 7.87173 5.38951C8.90973 5.17909 9.98415 5.50015 10.7366 6.24554C11.489 6.99094 11.82 8.06237 11.6193 9.10224C11.4186 10.1421 10.7125 11.0134 9.73676 11.4251C9.34696 11.5902 8.92792 11.6752 8.50459 11.6749L8.50473 11.675ZM8.50473 5.65536V5.65544C7.75067 5.65512 7.02732 5.95445 6.49392 6.48756C5.96051 7.02066 5.6608 7.74379 5.66072 8.49797C5.66064 9.25203 5.96013 9.97531 6.49338 10.5086C7.02656 11.0418 7.74983 11.3413 8.50399 11.3412C9.25813 11.3412 9.98125 11.0415 10.5144 10.508C11.0475 9.97471 11.3468 9.25135 11.3465 8.49723C11.3457 7.74379 11.046 7.02154 10.5132 6.48882C9.98053 5.95603 9.25827 5.6564 8.50483 5.65554L8.50473 5.65536Z" fill="black" stroke="black" stroke-width="0.3"/>
<path d="M9.88671 16H7.11811C6.98441 16 6.87603 15.8917 6.87603 15.758V14.648C6.32602 14.5046 5.79796 14.2875 5.30615 14.0026L4.52205 14.7867V14.7868C4.47659 14.8326 4.4148 14.8584 4.3502 14.8584C4.28571 14.8584 4.22381 14.8326 4.17846 14.7868L2.22288 12.8264C2.17708 12.781 2.15131 12.7191 2.15131 12.6546C2.15131 12.59 2.17708 12.5282 2.22288 12.4828L3.00699 11.6987H3.0071C2.72247 11.2061 2.50538 10.6776 2.36167 10.1271H1.24197C1.10827 10.1271 1 10.0188 1 9.88513V7.1197C1 6.986 1.10827 6.87773 1.24197 6.87773H2.35199C2.49571 6.32729 2.71279 5.79877 2.99742 5.30616L2.21332 4.52205H2.2132C2.1674 4.47659 2.14162 4.4148 2.14162 4.3502C2.14162 4.28571 2.1674 4.22381 2.2132 4.17846L4.17846 2.22289C4.22381 2.17708 4.28571 2.15131 4.3502 2.15131C4.4148 2.15131 4.47659 2.17708 4.52205 2.22289L5.30615 3.00699V3.0071C5.79796 2.72214 6.32602 2.50503 6.87603 2.36167V1.24197C6.87603 1.10827 6.98441 1 7.11811 1H9.88671C10.0204 1 10.1288 1.10827 10.1288 1.24197V2.35199C10.6788 2.49537 11.2069 2.71247 11.6987 2.99742L12.4828 2.21332V2.2132C12.5282 2.1674 12.59 2.14163 12.6546 2.14163C12.7191 2.14163 12.781 2.1674 12.8264 2.2132L14.7819 4.17846C14.8277 4.22381 14.8535 4.28571 14.8535 4.3502C14.8535 4.4148 14.8277 4.47659 14.7819 4.52205L13.9978 5.30616H13.9977C14.2823 5.79877 14.4994 6.32726 14.6432 6.87773H15.7629C15.8966 6.87773 16.0048 6.986 16.0048 7.1197V9.88513C16.0048 10.0188 15.8966 10.1271 15.7629 10.1271H14.648C14.5043 10.6775 14.2872 11.2061 14.0026 11.6987L14.7867 12.4828H14.7868C14.8326 12.5282 14.8584 12.59 14.8584 12.6546C14.8584 12.7191 14.8326 12.781 14.7868 12.8264L12.8264 14.782C12.781 14.8278 12.7191 14.8535 12.6546 14.8535C12.59 14.8535 12.5282 14.8278 12.4828 14.782L11.6987 13.9978V13.9977C11.2069 14.2827 10.6788 14.4998 10.1288 14.6432V15.7629C10.1261 15.8947 10.0185 16.0001 9.88671 16V16ZM7.3601 15.5159L9.64475 15.516V14.4576C9.64543 14.3454 9.72275 14.248 9.83191 14.222C10.4603 14.0773 11.0601 13.8287 11.6066 13.4863C11.7022 13.4268 11.8262 13.4415 11.9052 13.5218L12.6538 14.2689L14.2673 12.6554L13.5218 11.9068C13.4415 11.8279 13.4268 11.7039 13.4863 11.6083C13.828 11.0615 14.0766 10.4617 14.222 9.83348C14.2481 9.72341 14.3461 9.64542 14.4593 9.64474H15.5161V7.36167H14.4593C14.3461 7.361 14.2481 7.283 14.222 7.17293C14.0766 6.5447 13.828 5.94508 13.4863 5.39821C13.4268 5.30266 13.4415 5.17863 13.5218 5.09964L14.2689 4.35256L12.6554 2.73912L11.9068 3.48303C11.8279 3.56327 11.7039 3.57802 11.6083 3.51848C11.0618 3.17612 10.462 2.9275 9.8335 2.78278C9.72433 2.75679 9.64701 2.65944 9.64634 2.54723V1.48875H7.3601V2.54723C7.35942 2.65943 7.2821 2.75678 7.17294 2.78278C6.5445 2.92751 5.94474 3.17612 5.39821 3.51848C5.30266 3.57802 5.17864 3.56327 5.09964 3.48303L4.351 2.73595L2.73757 4.34939L3.48465 5.09647C3.56489 5.17536 3.57964 5.29939 3.5201 5.39493C3.17854 5.94177 2.92993 6.54153 2.7844 7.16965C2.7584 7.27983 2.66038 7.35782 2.54727 7.3585H1.4888V9.64316H2.5456C2.65882 9.64383 2.75673 9.72183 2.78284 9.83189C2.92825 10.4601 3.17687 11.0597 3.51854 11.6066C3.57808 11.7022 3.56333 11.8262 3.48309 11.9052L2.73601 12.6523L4.34945 14.2657L5.09808 13.5186C5.17698 13.4384 5.301 13.4236 5.39654 13.4831C5.94306 13.8254 6.54291 14.074 7.17138 14.2188C7.28055 14.2449 7.35786 14.3421 7.35854 14.4544L7.3601 15.5159Z" fill="black" stroke="black" stroke-width="0.2"/>
</svg>
